<?xml version="1.0" standalone="no"?>
<!DOCTYPE svg PUBLIC "-//W3C//DTD SVG 20010904//EN"
 "http://www.w3.org/TR/2001/REC-SVG-20010904/DTD/svg10.dtd">
<svg version="1.0" xmlns="http://www.w3.org/2000/svg"
 width="1110.000000pt" height="863.000000pt" viewBox="0 0 1110.000000 863.000000"
 preserveAspectRatio="xMidYMid meet">
<metadata>
Created by potrace 1.16, written by Peter Selinger 2001-2019
</metadata>
<g transform="translate(0.000000,863.000000) scale(0.100000,-0.100000)"
fill="#000000" stroke="none">
<path d="M4056 8549 c-129 -21 -269 -134 -386 -311 -76 -115 -196 -352 -283
-558 -36 -85 -172 -407 -302 -715 -592 -1397 -844 -2032 -1061 -2680 -35 -104
-191 -547 -347 -984 l-282 -793 -12 223 c-7 123 -18 268 -25 323 -10 84 -9
113 5 200 11 63 25 262 37 526 49 1069 107 1626 211 2032 62 239 120 354 197
388 115 51 142 120 108 281 -37 173 -145 274 -254 240 -102 -31 -197 -180
-282 -441 -81 -245 -169 -671 -290 -1405 -159 -964 -224 -1611 -224 -2230 0
-357 12 -516 54 -719 56 -270 153 -441 287 -507 68 -34 188 -34 255 -1 58 29
146 116 203 202 134 203 242 494 560 1515 90 286 214 649 349 1017 71 195
1286 3123 1321 3185 15 26 15 -16 8 -562 -13 -939 -10 -2687 5 -3010 62 -1359
197 -2096 426 -2329 67 -68 200 -128 296 -134 157 -10 324 107 474 332 92 138
160 265 581 1086 225 437 448 861 496 941 48 80 140 246 205 370 335 643 459
851 578 973 l59 61 9 -70 c43 -350 249 -889 486 -1266 271 -433 577 -698 907
-785 104 -27 315 -25 460 5 578 120 1449 622 1905 1098 168 175 205 260 163
377 -25 70 -58 91 -141 91 -152 0 -308 -81 -877 -452 -625 -408 -880 -539
-1142 -589 -344 -65 -627 127 -843 571 -87 178 -129 289 -275 730 -148 447
-175 517 -247 658 -96 186 -174 266 -302 307 -134 44 -230 8 -376 -139 -104
-104 -189 -226 -290 -411 -233 -430 -329 -609 -377 -705 -31 -60 -158 -299
-283 -530 -124 -231 -292 -553 -372 -715 -80 -162 -185 -365 -233 -450 -48
-85 -141 -258 -207 -385 -128 -247 -222 -397 -287 -459 -47 -46 -38 -64 -70
149 -11 77 -32 203 -46 280 -32 183 -41 311 -66 975 -41 1067 -40 1237 5 2960
28 1046 32 1438 16 1620 -28 327 -111 514 -259 590 -58 29 -153 41 -225 29z"/>
<path d="M215 651 l-80 -6 -8 -120 c-4 -66 -6 -185 -5 -265 l3 -145 85 0 c85
0 85 0 83 25 -2 14 -5 57 -9 96 l-7 71 69 5 c127 9 220 70 244 159 19 71 -14
131 -90 163 -43 17 -177 25 -285 17z m190 -125 c67 -28 38 -104 -48 -127 -65
-17 -72 -12 -75 60 -2 45 1 67 10 72 20 13 75 10 113 -5z"/>
<path d="M5423 650 c-55 -11 -94 -32 -133 -72 -98 -97 -106 -312 -15 -402 50
-50 117 -69 229 -64 109 5 164 29 210 95 26 37 30 54 34 126 5 105 -14 177
-62 233 -58 67 -170 103 -263 84z m128 -161 c57 -66 51 -206 -10 -239 -11 -5
-40 -10 -64 -10 -57 0 -93 33 -102 94 -7 45 8 118 31 150 37 54 102 56 145 5z"/>
<path d="M8404 650 c-118 -17 -180 -89 -152 -176 15 -44 53 -74 136 -104 32
-11 76 -27 100 -36 23 -9 47 -25 53 -37 17 -31 -28 -67 -85 -67 -59 0 -139 26
-176 57 -42 35 -52 22 -48 -68 l3 -73 45 -15 c29 -9 93 -14 180 -15 130 -1
137 0 182 26 82 49 99 147 35 205 -30 28 -67 45 -163 77 -45 15 -89 35 -98 45
-56 62 89 90 196 38 30 -15 58 -27 61 -27 13 0 7 127 -5 138 -33 26 -181 45
-264 32z"/>
<path d="M1065 593 c-63 -142 -139 -374 -147 -448 l-3 -30 80 0 80 0 10 53
c12 66 32 82 100 82 70 0 88 -16 95 -81 l5 -54 83 -3 c79 -3 82 -2 82 20 0 59
-125 434 -166 496 -13 20 -22 22 -104 22 l-90 0 -25 -57z"/>
<path d="M1792 633 c-4 -10 -7 -130 -7 -268 l0 -250 71 -3 c53 -2 74 1 83 12
9 11 10 71 3 259 -5 135 -13 250 -16 256 -4 6 -34 11 -67 11 -47 0 -61 -4 -67
-17z"/>
<path d="M2304 639 c-11 -19 -25 -265 -22 -399 l3 -125 80 0 80 0 -4 121 c-5
172 15 175 110 18 61 -101 107 -144 154 -144 38 0 62 19 71 57 9 33 -2 442
-11 466 -6 15 -18 17 -74 15 l-66 -3 1 -35 c0 -19 4 -71 8 -115 9 -104 -1
-121 -44 -80 -18 17 -54 68 -82 115 -70 120 -71 120 -139 120 -32 0 -61 -5
-65 -11z"/>
<path d="M3117 643 c-4 -3 -7 -44 -7 -90 0 -89 9 -102 44 -64 23 25 68 43 98
39 l23 -3 -5 -125 c-3 -69 -5 -161 -5 -205 l0 -80 83 -3 c62 -2 84 1 88 11 2
7 -1 94 -9 193 -9 115 -11 186 -5 198 14 26 71 15 120 -24 33 -27 39 -29 44
-15 7 18 -3 152 -12 166 -6 10 -447 12 -457 2z"/>
<path d="M4409 638 c-8 -95 61 -233 136 -274 l36 -19 -8 -75 c-4 -41 -7 -93
-8 -115 l0 -40 85 0 85 0 0 40 c-1 22 -4 74 -8 115 l-8 76 35 17 c65 30 136
160 136 247 l0 40 -80 0 -79 0 -6 -37 c-18 -114 -49 -193 -75 -193 -18 0 -49
62 -60 120 -6 30 -13 67 -16 83 -6 27 -6 27 -85 27 -56 0 -79 -4 -80 -12z"/>
<path d="M6095 627 c-11 -44 -21 -301 -13 -350 17 -112 94 -167 232 -167 103
0 148 13 195 56 57 51 65 93 58 282 -9 217 -3 203 -96 200 l-76 -3 2 -35 c0
-19 4 -89 9 -156 8 -133 3 -165 -26 -194 -28 -28 -91 -27 -116 1 -16 18 -19
37 -19 143 0 66 2 148 5 181 l5 60 -77 3 c-74 3 -78 2 -83 -21z"/>
<path d="M6916 578 c-4 -40 -7 -161 -9 -268 l-2 -195 79 -3 c44 -2 83 1 88 6
5 5 4 43 -3 87 -13 95 -7 125 24 125 12 0 33 -7 46 -16 29 -21 71 -109 71
-150 0 -16 5 -35 12 -42 16 -16 152 -16 166 1 12 15 0 93 -22 135 -16 30 -80
92 -96 92 -5 0 -21 5 -37 11 l-28 11 52 20 c99 37 144 112 110 184 -29 60 -59
69 -264 72 l-181 4 -6 -74z m294 -68 c16 -16 18 -25 10 -40 -15 -28 -64 -51
-113 -53 l-42 -2 -3 44 c-5 66 -1 71 68 71 47 0 64 -4 80 -20z"/>
<path d="M9064 638 c-4 -6 -12 -122 -16 -256 -7 -188 -7 -247 3 -258 9 -11 30
-14 83 -12 l71 3 3 180 c1 99 -1 218 -5 265 l-8 85 -62 3 c-41 2 -64 -1 -69
-10z"/>
<path d="M9547 643 c-9 -8 -9 -168 -1 -176 4 -4 22 7 41 23 35 31 69 44 100
38 17 -3 18 -13 13 -133 -2 -72 -5 -164 -5 -205 l0 -75 85 0 85 0 -5 115 c-3
63 -5 156 -5 205 l0 90 38 -1 c26 -1 50 -11 78 -33 33 -27 40 -30 45 -16 7 18
-3 152 -12 166 -6 10 -447 12 -457 2z"/>
<path d="M10364 639 c-9 -15 -26 -339 -22 -441 l3 -83 236 -3 c184 -2 238 0
241 10 6 20 -6 185 -15 194 -4 4 -25 -11 -47 -34 -45 -47 -79 -57 -171 -50
-38 3 -66 10 -76 21 -20 19 -23 81 -5 99 19 19 123 22 164 5 20 -8 39 -13 42
-9 3 3 6 25 6 49 l0 43 -95 0 c-82 0 -98 3 -115 20 -17 17 -18 24 -10 41 30
56 170 51 240 -8 19 -15 35 -22 40 -17 6 6 6 44 2 89 l-7 80 -202 3 c-142 2
-204 -1 -209 -9z"/>
</g>
</svg>
